# xmcd
#
# Track frame offsets:
#	150
#	24868
#	42343
#	65333
#	89395
#	106717
#	128349
#	151178
#	167408
#	187837
#	211820
#	232559
#	246039
#	265034
#	283054
#
# Disc length: 3990 seconds
#
# Revision: 1
# Processed by: cddbd v1.5.2PL0 Copyright (c) Steve Scherf et al.
# Submitted via: EasyCDDAExtractor 12.0.4.1
#
DISCID=a70f940f
DTITLE=Various Artist - Mix&Match
DYEAR=1900
DGENRE=
TTITLE0=Crescendo - ใจกลางความเจ็บปวด
TTITLE1=Scrubb - เข้ากันดี
TTITLE2=P.O.P - รักของเธอมีจริงหรือเปล่า
TTITLE3=Pru - Romeo and Juliet
TTITLE4=Groove Riders - Cosmetic
TTITLE5=Boyd&Nop - ฤดูที่แตกต่าง
TTITLE6=Pause - ที่ว่าง
TTITLE7=Nadia - Happy Anniversary
TTITLE8=Triumph Kingdoms - ผ้าเช็ด
TTITLE9=Flure - ปล่อยไปตามหัวใจ
TTITLE10=Onaree - ระหว่างเรา
TTITLE11=T-bone - กอด
TTITLE12=Mr.Z - เผลอ
TTITLE13=Yokee Playboy - อยู่มานาน
TTITLE14=Soul After Six - รู้
EXTD=
EXTT0=
EXTT1=
EXTT2=
EXTT3=
EXTT4=
EXTT5=
EXTT6=
EXTT7=
EXTT8=
EXTT9=
EXTT10=
EXTT11=
EXTT12=
EXTT13=
EXTT14=
PLAYORDER=
